<mxfile host="65bd71144e">
    <diagram name="Page-1" id="65439vAW38-Hdfyko0-h">
        <mxGraphModel dx="2931" dy="1668" grid="1" gridSize="5" guides="1" tooltips="1" connect="1" arrows="1" fold="1" page="1" pageScale="1" pageWidth="827" pageHeight="1169" math="0" shadow="0">
            <root>
                <mxCell id="0"/>
                <mxCell id="1" parent="0"/>
                <mxCell id="vAPCmih38q4xz6qMJKvT-133" value="BaseEntity" style="swimlane;fontStyle=0;childLayout=stackLayout;horizontal=1;startSize=26;fillColor=none;horizontalStack=0;resizeParent=1;resizeParentMax=0;resizeLast=0;collapsible=1;marginBottom=0;whiteSpace=wrap;html=1;" parent="1" vertex="1">
                    <mxGeometry x="538" y="325" width="140" height="52" as="geometry"/>
                </mxCell>
                <mxCell id="vAPCmih38q4xz6qMJKvT-134" value="+ Id: int" style="text;strokeColor=none;fillColor=none;align=left;verticalAlign=top;spacingLeft=4;spacingRight=4;overflow=hidden;rotatable=0;points=[[0,0.5],[1,0.5]];portConstraint=eastwest;whiteSpace=wrap;html=1;" parent="vAPCmih38q4xz6qMJKvT-133" vertex="1">
                    <mxGeometry y="26" width="140" height="26" as="geometry"/>
                </mxCell>
                <mxCell id="vAPCmih38q4xz6qMJKvT-137" value="User" style="swimlane;fontStyle=0;childLayout=stackLayout;horizontal=1;startSize=26;fillColor=none;horizontalStack=0;resizeParent=1;resizeParentMax=0;resizeLast=0;collapsible=1;marginBottom=0;whiteSpace=wrap;html=1;" parent="1" vertex="1">
                    <mxGeometry x="-37" y="260" width="285" height="312" as="geometry"/>
                </mxCell>
                <mxCell id="vAPCmih38q4xz6qMJKvT-138" value="+ Name: string" style="text;strokeColor=none;fillColor=none;align=left;verticalAlign=top;spacingLeft=4;spacingRight=4;overflow=hidden;rotatable=0;points=[[0,0.5],[1,0.5]];portConstraint=eastwest;whiteSpace=wrap;html=1;" parent="vAPCmih38q4xz6qMJKvT-137" vertex="1">
                    <mxGeometry y="26" width="285" height="26" as="geometry"/>
                </mxCell>
                <mxCell id="vAPCmih38q4xz6qMJKvT-139" value="+ Bio: string?" style="text;strokeColor=none;fillColor=none;align=left;verticalAlign=top;spacingLeft=4;spacingRight=4;overflow=hidden;rotatable=0;points=[[0,0.5],[1,0.5]];portConstraint=eastwest;whiteSpace=wrap;html=1;" parent="vAPCmih38q4xz6qMJKvT-137" vertex="1">
                    <mxGeometry y="52" width="285" height="26" as="geometry"/>
                </mxCell>
                <mxCell id="vAPCmih38q4xz6qMJKvT-140" value="+ Email: string" style="text;strokeColor=none;fillColor=none;align=left;verticalAlign=top;spacingLeft=4;spacingRight=4;overflow=hidden;rotatable=0;points=[[0,0.5],[1,0.5]];portConstraint=eastwest;whiteSpace=wrap;html=1;" parent="vAPCmih38q4xz6qMJKvT-137" vertex="1">
                    <mxGeometry y="78" width="285" height="26" as="geometry"/>
                </mxCell>
                <mxCell id="vAPCmih38q4xz6qMJKvT-141" value="+ PasswordHash: byte[]" style="text;strokeColor=none;fillColor=none;align=left;verticalAlign=top;spacingLeft=4;spacingRight=4;overflow=hidden;rotatable=0;points=[[0,0.5],[1,0.5]];portConstraint=eastwest;whiteSpace=wrap;html=1;" parent="vAPCmih38q4xz6qMJKvT-137" vertex="1">
                    <mxGeometry y="104" width="285" height="26" as="geometry"/>
                </mxCell>
                <mxCell id="vAPCmih38q4xz6qMJKvT-142" value="+ PasswordSalt: byte[]" style="text;strokeColor=none;fillColor=none;align=left;verticalAlign=top;spacingLeft=4;spacingRight=4;overflow=hidden;rotatable=0;points=[[0,0.5],[1,0.5]];portConstraint=eastwest;whiteSpace=wrap;html=1;" parent="vAPCmih38q4xz6qMJKvT-137" vertex="1">
                    <mxGeometry y="130" width="285" height="26" as="geometry"/>
                </mxCell>
                <mxCell id="vAPCmih38q4xz6qMJKvT-171" value="+ Preferences: ICollection&amp;lt;Preference&amp;gt;" style="text;strokeColor=none;fillColor=none;align=left;verticalAlign=top;spacingLeft=4;spacingRight=4;overflow=hidden;rotatable=0;points=[[0,0.5],[1,0.5]];portConstraint=eastwest;whiteSpace=wrap;html=1;" parent="vAPCmih38q4xz6qMJKvT-137" vertex="1">
                    <mxGeometry y="156" width="285" height="26" as="geometry"/>
                </mxCell>
                <mxCell id="vAPCmih38q4xz6qMJKvT-236" value="+ Interests: ICollection&amp;lt;InterestTag&amp;gt;" style="text;strokeColor=none;fillColor=none;align=left;verticalAlign=top;spacingLeft=4;spacingRight=4;overflow=hidden;rotatable=0;points=[[0,0.5],[1,0.5]];portConstraint=eastwest;whiteSpace=wrap;html=1;" parent="vAPCmih38q4xz6qMJKvT-137" vertex="1">
                    <mxGeometry y="182" width="285" height="26" as="geometry"/>
                </mxCell>
                <mxCell id="vAPCmih38q4xz6qMJKvT-184" value="+ ParticipatingIn: ICollection&amp;lt;SocialEvent&amp;gt;" style="text;strokeColor=none;fillColor=none;align=left;verticalAlign=top;spacingLeft=4;spacingRight=4;overflow=hidden;rotatable=0;points=[[0,0.5],[1,0.5]];portConstraint=eastwest;whiteSpace=wrap;html=1;" parent="vAPCmih38q4xz6qMJKvT-137" vertex="1">
                    <mxGeometry y="208" width="285" height="26" as="geometry"/>
                </mxCell>
                <mxCell id="vAPCmih38q4xz6qMJKvT-265" value="+ Organizing: ICollection&amp;lt;SocialEvent&amp;gt;" style="text;strokeColor=none;fillColor=none;align=left;verticalAlign=top;spacingLeft=4;spacingRight=4;overflow=hidden;rotatable=0;points=[[0,0.5],[1,0.5]];portConstraint=eastwest;whiteSpace=wrap;html=1;" parent="vAPCmih38q4xz6qMJKvT-137" vertex="1">
                    <mxGeometry y="234" width="285" height="26" as="geometry"/>
                </mxCell>
                <mxCell id="vAPCmih38q4xz6qMJKvT-285" value="+ Reviews: ICollection&amp;lt;Review&amp;gt;" style="text;strokeColor=none;fillColor=none;align=left;verticalAlign=top;spacingLeft=4;spacingRight=4;overflow=hidden;rotatable=0;points=[[0,0.5],[1,0.5]];portConstraint=eastwest;whiteSpace=wrap;html=1;" parent="vAPCmih38q4xz6qMJKvT-137" vertex="1">
                    <mxGeometry y="260" width="285" height="26" as="geometry"/>
                </mxCell>
                <mxCell id="vAPCmih38q4xz6qMJKvT-264" value="+ LocationClaims: ICollection&amp;lt;LocationClaim&amp;gt;" style="text;strokeColor=none;fillColor=none;align=left;verticalAlign=top;spacingLeft=4;spacingRight=4;overflow=hidden;rotatable=0;points=[[0,0.5],[1,0.5]];portConstraint=eastwest;whiteSpace=wrap;html=1;" parent="vAPCmih38q4xz6qMJKvT-137" vertex="1">
                    <mxGeometry y="286" width="285" height="26" as="geometry"/>
                </mxCell>
                <mxCell id="vAPCmih38q4xz6qMJKvT-175" value="LocationClaim" style="swimlane;fontStyle=0;childLayout=stackLayout;horizontal=1;startSize=26;fillColor=none;horizontalStack=0;resizeParent=1;resizeParentMax=0;resizeLast=0;collapsible=1;marginBottom=0;whiteSpace=wrap;html=1;" parent="1" vertex="1">
                    <mxGeometry x="-22" y="585" width="255" height="156" as="geometry"/>
                </mxCell>
                <mxCell id="vAPCmih38q4xz6qMJKvT-176" value="+ Preferences : ICollection&amp;lt;Preference&amp;gt;" style="text;strokeColor=none;fillColor=none;align=left;verticalAlign=top;spacingLeft=4;spacingRight=4;overflow=hidden;rotatable=0;points=[[0,0.5],[1,0.5]];portConstraint=eastwest;whiteSpace=wrap;html=1;" parent="vAPCmih38q4xz6qMJKvT-175" vertex="1">
                    <mxGeometry y="26" width="255" height="26" as="geometry"/>
                </mxCell>
                <mxCell id="vAPCmih38q4xz6qMJKvT-185" value="+ Claimer: User" style="text;strokeColor=none;fillColor=none;align=left;verticalAlign=top;spacingLeft=4;spacingRight=4;overflow=hidden;rotatable=0;points=[[0,0.5],[1,0.5]];portConstraint=eastwest;whiteSpace=wrap;html=1;" parent="vAPCmih38q4xz6qMJKvT-175" vertex="1">
                    <mxGeometry y="52" width="255" height="26" as="geometry"/>
                </mxCell>
                <mxCell id="vAPCmih38q4xz6qMJKvT-177" value="+ Claimed: Location" style="text;strokeColor=none;fillColor=none;align=left;verticalAlign=top;spacingLeft=4;spacingRight=4;overflow=hidden;rotatable=0;points=[[0,0.5],[1,0.5]];portConstraint=eastwest;whiteSpace=wrap;html=1;" parent="vAPCmih38q4xz6qMJKvT-175" vertex="1">
                    <mxGeometry y="78" width="255" height="26" as="geometry"/>
                </mxCell>
                <mxCell id="vAPCmih38q4xz6qMJKvT-190" value="+ ClaimedId : int" style="text;strokeColor=none;fillColor=none;align=left;verticalAlign=top;spacingLeft=4;spacingRight=4;overflow=hidden;rotatable=0;points=[[0,0.5],[1,0.5]];portConstraint=eastwest;whiteSpace=wrap;html=1;flipV=1;flipH=1;" parent="vAPCmih38q4xz6qMJKvT-175" vertex="1">
                    <mxGeometry y="104" width="255" height="26" as="geometry"/>
                </mxCell>
                <mxCell id="vAPCmih38q4xz6qMJKvT-182" value="+ ClaimerId : int" style="text;strokeColor=none;fillColor=none;align=left;verticalAlign=top;spacingLeft=4;spacingRight=4;overflow=hidden;rotatable=0;points=[[0,0.5],[1,0.5]];portConstraint=eastwest;whiteSpace=wrap;html=1;" parent="vAPCmih38q4xz6qMJKvT-175" vertex="1">
                    <mxGeometry y="130" width="255" height="26" as="geometry"/>
                </mxCell>
                <mxCell id="vAPCmih38q4xz6qMJKvT-202" value="ContactPublicityPreference" style="swimlane;fontStyle=0;childLayout=stackLayout;horizontal=1;startSize=26;fillColor=none;horizontalStack=0;resizeParent=1;resizeParentMax=0;resizeLast=0;collapsible=1;marginBottom=0;whiteSpace=wrap;html=1;" parent="1" vertex="1">
                    <mxGeometry x="-697" y="490" width="160" height="52" as="geometry"/>
                </mxCell>
                <mxCell id="vAPCmih38q4xz6qMJKvT-203" value="RequiresConsumptionPreference" style="swimlane;fontStyle=0;childLayout=stackLayout;horizontal=1;startSize=26;fillColor=none;horizontalStack=0;resizeParent=1;resizeParentMax=0;resizeLast=0;collapsible=1;marginBottom=0;whiteSpace=wrap;html=1;" parent="1" vertex="1">
                    <mxGeometry x="-730" y="430" width="240" height="52" as="geometry"/>
                </mxCell>
                <mxCell id="vAPCmih38q4xz6qMJKvT-204" value="+ MinimalAmmount: decimal?" style="text;strokeColor=none;fillColor=none;align=left;verticalAlign=top;spacingLeft=4;spacingRight=4;overflow=hidden;rotatable=0;points=[[0,0.5],[1,0.5]];portConstraint=eastwest;whiteSpace=wrap;html=1;" parent="vAPCmih38q4xz6qMJKvT-203" vertex="1">
                    <mxGeometry y="26" width="240" height="26" as="geometry"/>
                </mxCell>
                <mxCell id="vAPCmih38q4xz6qMJKvT-207" value="MaximumCapacityPreference" style="swimlane;fontStyle=0;childLayout=stackLayout;horizontal=1;startSize=26;fillColor=none;horizontalStack=0;resizeParent=1;resizeParentMax=0;resizeLast=0;collapsible=1;marginBottom=0;whiteSpace=wrap;html=1;" parent="1" vertex="1">
                    <mxGeometry x="-730" y="368" width="240" height="52" as="geometry"/>
                </mxCell>
                <mxCell id="vAPCmih38q4xz6qMJKvT-208" value="+&amp;nbsp;MaximumCapacity: short" style="text;strokeColor=none;fillColor=none;align=left;verticalAlign=top;spacingLeft=4;spacingRight=4;overflow=hidden;rotatable=0;points=[[0,0.5],[1,0.5]];portConstraint=eastwest;whiteSpace=wrap;html=1;" parent="vAPCmih38q4xz6qMJKvT-207" vertex="1">
                    <mxGeometry y="26" width="240" height="26" as="geometry"/>
                </mxCell>
                <mxCell id="vAPCmih38q4xz6qMJKvT-209" value="PreferenceTemplate" style="swimlane;fontStyle=0;childLayout=stackLayout;horizontal=1;startSize=26;fillColor=none;horizontalStack=0;resizeParent=1;resizeParentMax=0;resizeLast=0;collapsible=1;marginBottom=0;whiteSpace=wrap;html=1;" parent="1" vertex="1">
                    <mxGeometry x="-437" y="330" width="160" height="52" as="geometry"/>
                </mxCell>
                <mxCell id="vAPCmih38q4xz6qMJKvT-210" value="+ ShortDescription: string" style="text;strokeColor=none;fillColor=none;align=left;verticalAlign=top;spacingLeft=4;spacingRight=4;overflow=hidden;rotatable=0;points=[[0,0.5],[1,0.5]];portConstraint=eastwest;whiteSpace=wrap;html=1;" parent="vAPCmih38q4xz6qMJKvT-209" vertex="1">
                    <mxGeometry y="26" width="160" height="26" as="geometry"/>
                </mxCell>
                <mxCell id="vAPCmih38q4xz6qMJKvT-211" value="Preference" style="swimlane;fontStyle=0;childLayout=stackLayout;horizontal=1;startSize=26;fillColor=none;horizontalStack=0;resizeParent=1;resizeParentMax=0;resizeLast=0;collapsible=1;marginBottom=0;whiteSpace=wrap;html=1;" parent="1" vertex="1">
                    <mxGeometry x="-327" y="416" width="190" height="52" as="geometry"/>
                </mxCell>
                <mxCell id="vAPCmih38q4xz6qMJKvT-212" value="+ PreferenceTemplate Template" style="text;strokeColor=none;fillColor=none;align=left;verticalAlign=top;spacingLeft=4;spacingRight=4;overflow=hidden;rotatable=0;points=[[0,0.5],[1,0.5]];portConstraint=eastwest;whiteSpace=wrap;html=1;" parent="vAPCmih38q4xz6qMJKvT-211" vertex="1">
                    <mxGeometry y="26" width="190" height="26" as="geometry"/>
                </mxCell>
                <mxCell id="vAPCmih38q4xz6qMJKvT-214" value="" style="endArrow=none;html=1;rounded=0;entryX=1;entryY=0.5;entryDx=0;entryDy=0;exitX=1;exitY=0.5;exitDx=0;exitDy=0;" parent="1" source="vAPCmih38q4xz6qMJKvT-264" target="vAPCmih38q4xz6qMJKvT-185" edge="1">
                    <mxGeometry relative="1" as="geometry">
                        <mxPoint x="302.6551724137931" y="480" as="sourcePoint"/>
                        <mxPoint x="-137" y="595" as="targetPoint"/>
                        <Array as="points">
                            <mxPoint x="293" y="559"/>
                            <mxPoint x="293" y="650"/>
                        </Array>
                    </mxGeometry>
                </mxCell>
                <mxCell id="vAPCmih38q4xz6qMJKvT-215" value="0..N" style="edgeLabel;resizable=0;html=1;align=left;verticalAlign=bottom;" parent="vAPCmih38q4xz6qMJKvT-214" connectable="0" vertex="1">
                    <mxGeometry x="-1" relative="1" as="geometry"/>
                </mxCell>
                <mxCell id="vAPCmih38q4xz6qMJKvT-216" value="1" style="edgeLabel;resizable=0;html=1;align=right;verticalAlign=bottom;" parent="vAPCmih38q4xz6qMJKvT-214" connectable="0" vertex="1">
                    <mxGeometry x="1" relative="1" as="geometry">
                        <mxPoint x="15" as="offset"/>
                    </mxGeometry>
                </mxCell>
                <mxCell id="vAPCmih38q4xz6qMJKvT-218" value="Extends" style="endArrow=block;endSize=16;endFill=0;html=1;rounded=0;exitX=1;exitY=0.5;exitDx=0;exitDy=0;entryX=0;entryY=0.5;entryDx=0;entryDy=0;" parent="1" source="vAPCmih38q4xz6qMJKvT-139" target="vAPCmih38q4xz6qMJKvT-133" edge="1">
                    <mxGeometry x="-0.3747" y="-2" width="160" relative="1" as="geometry">
                        <mxPoint x="183" y="215" as="sourcePoint"/>
                        <mxPoint x="613" y="390" as="targetPoint"/>
                        <Array as="points">
                            <mxPoint x="428" y="350"/>
                        </Array>
                        <mxPoint as="offset"/>
                    </mxGeometry>
                </mxCell>
                <mxCell id="vAPCmih38q4xz6qMJKvT-219" value="Extends" style="endArrow=block;endSize=16;endFill=0;html=1;rounded=0;exitX=0.75;exitY=0;exitDx=0;exitDy=0;entryX=0;entryY=0.5;entryDx=0;entryDy=0;" parent="1" source="vAPCmih38q4xz6qMJKvT-211" target="vAPCmih38q4xz6qMJKvT-133" edge="1">
                    <mxGeometry width="160" relative="1" as="geometry">
                        <mxPoint x="-187" y="210" as="sourcePoint"/>
                        <mxPoint x="548" y="415" as="targetPoint"/>
                        <Array as="points">
                            <mxPoint x="-184" y="390"/>
                            <mxPoint x="-57" y="240"/>
                            <mxPoint x="248" y="240"/>
                            <mxPoint x="428" y="350"/>
                        </Array>
                    </mxGeometry>
                </mxCell>
                <mxCell id="vAPCmih38q4xz6qMJKvT-221" value="" style="endArrow=open;html=1;endSize=12;startArrow=diamondThin;startSize=14;startFill=0;rounded=0;entryX=0;entryY=0.5;entryDx=0;entryDy=0;exitX=1;exitY=0.25;exitDx=0;exitDy=0;" parent="1" source="vAPCmih38q4xz6qMJKvT-211" target="vAPCmih38q4xz6qMJKvT-171" edge="1">
                    <mxGeometry relative="1" as="geometry">
                        <mxPoint x="-212" y="487" as="sourcePoint"/>
                        <mxPoint x="-52" y="487" as="targetPoint"/>
                    </mxGeometry>
                </mxCell>
                <mxCell id="vAPCmih38q4xz6qMJKvT-222" value="0..N" style="edgeLabel;resizable=0;html=1;align=left;verticalAlign=top;" parent="vAPCmih38q4xz6qMJKvT-221" connectable="0" vertex="1">
                    <mxGeometry x="-1" relative="1" as="geometry"/>
                </mxCell>
                <mxCell id="vAPCmih38q4xz6qMJKvT-223" value="1" style="edgeLabel;resizable=0;html=1;align=right;verticalAlign=top;" parent="vAPCmih38q4xz6qMJKvT-221" connectable="0" vertex="1">
                    <mxGeometry x="1" relative="1" as="geometry"/>
                </mxCell>
                <mxCell id="vAPCmih38q4xz6qMJKvT-224" value="" style="endArrow=open;html=1;endSize=12;startArrow=diamondThin;startSize=14;startFill=1;rounded=0;entryX=0.5;entryY=0;entryDx=0;entryDy=0;exitX=1;exitY=0.25;exitDx=0;exitDy=0;" parent="1" source="vAPCmih38q4xz6qMJKvT-209" target="vAPCmih38q4xz6qMJKvT-211" edge="1">
                    <mxGeometry relative="1" as="geometry">
                        <mxPoint x="-277" y="189" as="sourcePoint"/>
                        <mxPoint x="-152" y="260" as="targetPoint"/>
                        <Array as="points">
                            <mxPoint x="-232" y="345"/>
                        </Array>
                    </mxGeometry>
                </mxCell>
                <mxCell id="vAPCmih38q4xz6qMJKvT-225" value="1" style="edgeLabel;resizable=0;html=1;align=left;verticalAlign=top;" parent="vAPCmih38q4xz6qMJKvT-224" connectable="0" vertex="1">
                    <mxGeometry x="-1" relative="1" as="geometry">
                        <mxPoint x="15" y="-13" as="offset"/>
                    </mxGeometry>
                </mxCell>
                <mxCell id="vAPCmih38q4xz6qMJKvT-230" value="" style="endArrow=block;endSize=16;endFill=0;html=1;rounded=0;entryX=0;entryY=0.25;entryDx=0;entryDy=0;exitX=1;exitY=0.25;exitDx=0;exitDy=0;" parent="1" source="vAPCmih38q4xz6qMJKvT-207" target="vAPCmih38q4xz6qMJKvT-211" edge="1">
                    <mxGeometry x="0.4002" y="18" width="160" relative="1" as="geometry">
                        <mxPoint x="-477" y="380" as="sourcePoint"/>
                        <mxPoint x="-342" y="483" as="targetPoint"/>
                        <Array as="points">
                            <mxPoint x="-412" y="429"/>
                        </Array>
                        <mxPoint y="1" as="offset"/>
                    </mxGeometry>
                </mxCell>
                <mxCell id="vAPCmih38q4xz6qMJKvT-231" value="" style="endArrow=block;endSize=16;endFill=0;html=1;rounded=0;entryX=0;entryY=0.25;entryDx=0;entryDy=0;exitX=1;exitY=0.25;exitDx=0;exitDy=0;" parent="1" source="vAPCmih38q4xz6qMJKvT-203" target="vAPCmih38q4xz6qMJKvT-211" edge="1">
                    <mxGeometry x="0.4002" y="18" width="160" relative="1" as="geometry">
                        <mxPoint x="-492" y="416" as="sourcePoint"/>
                        <mxPoint x="-327" y="457" as="targetPoint"/>
                        <Array as="points">
                            <mxPoint x="-412" y="429"/>
                        </Array>
                        <mxPoint y="1" as="offset"/>
                    </mxGeometry>
                </mxCell>
                <mxCell id="vAPCmih38q4xz6qMJKvT-232" value="" style="endArrow=block;endSize=16;endFill=0;html=1;rounded=0;entryX=0;entryY=0.25;entryDx=0;entryDy=0;exitX=1;exitY=0.25;exitDx=0;exitDy=0;" parent="1" source="vAPCmih38q4xz6qMJKvT-202" target="vAPCmih38q4xz6qMJKvT-211" edge="1">
                    <mxGeometry x="0.4002" y="18" width="160" relative="1" as="geometry">
                        <mxPoint x="-482" y="398" as="sourcePoint"/>
                        <mxPoint x="-317" y="439" as="targetPoint"/>
                        <Array as="points">
                            <mxPoint x="-437" y="500"/>
                            <mxPoint x="-412" y="429"/>
                        </Array>
                        <mxPoint y="1" as="offset"/>
                    </mxGeometry>
                </mxCell>
                <mxCell id="vAPCmih38q4xz6qMJKvT-233" value="" style="endArrow=none;html=1;rounded=0;entryX=0;entryY=0.5;entryDx=0;entryDy=0;exitX=0.822;exitY=1.022;exitDx=0;exitDy=0;exitPerimeter=0;" parent="1" source="vAPCmih38q4xz6qMJKvT-212" target="vAPCmih38q4xz6qMJKvT-176" edge="1">
                    <mxGeometry relative="1" as="geometry">
                        <mxPoint x="-232" y="510" as="sourcePoint"/>
                        <mxPoint x="-37" y="715" as="targetPoint"/>
                        <Array as="points">
                            <mxPoint x="-171" y="545"/>
                            <mxPoint x="-77" y="624"/>
                        </Array>
                    </mxGeometry>
                </mxCell>
                <mxCell id="vAPCmih38q4xz6qMJKvT-234" value="0..N" style="edgeLabel;resizable=0;html=1;align=left;verticalAlign=bottom;" parent="vAPCmih38q4xz6qMJKvT-233" connectable="0" vertex="1">
                    <mxGeometry x="-1" relative="1" as="geometry">
                        <mxPoint y="21" as="offset"/>
                    </mxGeometry>
                </mxCell>
                <mxCell id="vAPCmih38q4xz6qMJKvT-235" value="1" style="edgeLabel;resizable=0;html=1;align=right;verticalAlign=bottom;" parent="vAPCmih38q4xz6qMJKvT-233" connectable="0" vertex="1">
                    <mxGeometry x="1" relative="1" as="geometry">
                        <mxPoint x="-10" as="offset"/>
                    </mxGeometry>
                </mxCell>
                <mxCell id="vAPCmih38q4xz6qMJKvT-239" value="Location" style="swimlane;fontStyle=0;childLayout=stackLayout;horizontal=1;startSize=26;fillColor=none;horizontalStack=0;resizeParent=1;resizeParentMax=0;resizeLast=0;collapsible=1;marginBottom=0;whiteSpace=wrap;html=1;" parent="1" vertex="1">
                    <mxGeometry x="-22" y="780" width="255" height="130" as="geometry"/>
                </mxCell>
                <mxCell id="vAPCmih38q4xz6qMJKvT-241" value="+ Name : string" style="text;strokeColor=none;fillColor=none;align=left;verticalAlign=top;spacingLeft=4;spacingRight=4;overflow=hidden;rotatable=0;points=[[0,0.5],[1,0.5]];portConstraint=eastwest;whiteSpace=wrap;html=1;" parent="vAPCmih38q4xz6qMJKvT-239" vertex="1">
                    <mxGeometry y="26" width="255" height="26" as="geometry"/>
                </mxCell>
                <mxCell id="vAPCmih38q4xz6qMJKvT-242" value="+ Latitude: double" style="text;strokeColor=none;fillColor=none;align=left;verticalAlign=top;spacingLeft=4;spacingRight=4;overflow=hidden;rotatable=0;points=[[0,0.5],[1,0.5]];portConstraint=eastwest;whiteSpace=wrap;html=1;" parent="vAPCmih38q4xz6qMJKvT-239" vertex="1">
                    <mxGeometry y="52" width="255" height="26" as="geometry"/>
                </mxCell>
                <mxCell id="vAPCmih38q4xz6qMJKvT-243" value="+ Longitude : double" style="text;strokeColor=none;fillColor=none;align=left;verticalAlign=top;spacingLeft=4;spacingRight=4;overflow=hidden;rotatable=0;points=[[0,0.5],[1,0.5]];portConstraint=eastwest;whiteSpace=wrap;html=1;" parent="vAPCmih38q4xz6qMJKvT-239" vertex="1">
                    <mxGeometry y="78" width="255" height="26" as="geometry"/>
                </mxCell>
                <mxCell id="vAPCmih38q4xz6qMJKvT-244" value="+&amp;nbsp;Claim :&amp;nbsp;LocationClaim" style="text;strokeColor=none;fillColor=none;align=left;verticalAlign=top;spacingLeft=4;spacingRight=4;overflow=hidden;rotatable=0;points=[[0,0.5],[1,0.5]];portConstraint=eastwest;whiteSpace=wrap;html=1;" parent="vAPCmih38q4xz6qMJKvT-239" vertex="1">
                    <mxGeometry y="104" width="255" height="26" as="geometry"/>
                </mxCell>
                <mxCell id="vAPCmih38q4xz6qMJKvT-248" value="" style="endArrow=none;html=1;rounded=0;entryX=0;entryY=0.5;entryDx=0;entryDy=0;exitX=0;exitY=0.5;exitDx=0;exitDy=0;" parent="1" source="vAPCmih38q4xz6qMJKvT-177" target="vAPCmih38q4xz6qMJKvT-244" edge="1">
                    <mxGeometry relative="1" as="geometry">
                        <mxPoint x="-171" y="710" as="sourcePoint"/>
                        <mxPoint x="-22" y="865" as="targetPoint"/>
                        <Array as="points">
                            <mxPoint x="-77" y="676"/>
                            <mxPoint x="-77" y="897"/>
                        </Array>
                    </mxGeometry>
                </mxCell>
                <mxCell id="vAPCmih38q4xz6qMJKvT-249" value="0..1" style="edgeLabel;resizable=0;html=1;align=left;verticalAlign=bottom;" parent="vAPCmih38q4xz6qMJKvT-248" connectable="0" vertex="1">
                    <mxGeometry x="-1" relative="1" as="geometry">
                        <mxPoint x="-25" y="-1" as="offset"/>
                    </mxGeometry>
                </mxCell>
                <mxCell id="vAPCmih38q4xz6qMJKvT-250" value="1" style="edgeLabel;resizable=0;html=1;align=right;verticalAlign=bottom;" parent="vAPCmih38q4xz6qMJKvT-248" connectable="0" vertex="1">
                    <mxGeometry x="1" relative="1" as="geometry">
                        <mxPoint x="-10" as="offset"/>
                    </mxGeometry>
                </mxCell>
                <mxCell id="vAPCmih38q4xz6qMJKvT-251" value="Extends" style="endArrow=block;endSize=16;endFill=0;html=1;rounded=0;exitX=0;exitY=0.5;exitDx=0;exitDy=0;entryX=1;entryY=0.5;entryDx=0;entryDy=0;" parent="1" source="vAPCmih38q4xz6qMJKvT-185" target="vAPCmih38q4xz6qMJKvT-133" edge="1">
                    <mxGeometry x="-0.0827" width="160" relative="1" as="geometry">
                        <mxPoint x="203" y="585" as="sourcePoint"/>
                        <mxPoint x="707.0909090909091" y="350" as="targetPoint"/>
                        <Array as="points">
                            <mxPoint x="-97" y="650"/>
                            <mxPoint x="-97" y="930"/>
                            <mxPoint x="748" y="930"/>
                            <mxPoint x="753" y="351"/>
                        </Array>
                        <mxPoint as="offset"/>
                    </mxGeometry>
                </mxCell>
                <mxCell id="vAPCmih38q4xz6qMJKvT-252" value="Extends" style="endArrow=block;endSize=16;endFill=0;html=1;rounded=0;entryX=1;entryY=0.5;entryDx=0;entryDy=0;exitX=1;exitY=0.5;exitDx=0;exitDy=0;" parent="1" source="vAPCmih38q4xz6qMJKvT-244" target="vAPCmih38q4xz6qMJKvT-133" edge="1">
                    <mxGeometry x="-0.4144" y="-3" width="160" relative="1" as="geometry">
                        <mxPoint x="278" y="890" as="sourcePoint"/>
                        <mxPoint x="538" y="396" as="targetPoint"/>
                        <Array as="points">
                            <mxPoint x="748" y="905"/>
                            <mxPoint x="753" y="351"/>
                        </Array>
                        <mxPoint x="-1" as="offset"/>
                    </mxGeometry>
                </mxCell>
                <mxCell id="vAPCmih38q4xz6qMJKvT-254" value="SocialEvent" style="swimlane;fontStyle=0;childLayout=stackLayout;horizontal=1;startSize=26;fillColor=none;horizontalStack=0;resizeParent=1;resizeParentMax=0;resizeLast=0;collapsible=1;marginBottom=0;whiteSpace=wrap;html=1;" parent="1" vertex="1">
                    <mxGeometry x="458" y="530" width="255" height="208" as="geometry"/>
                </mxCell>
                <mxCell id="vAPCmih38q4xz6qMJKvT-281" value="+ Interests: ICollection&amp;lt;InterestTags&amp;gt;" style="text;strokeColor=none;fillColor=none;align=left;verticalAlign=top;spacingLeft=4;spacingRight=4;overflow=hidden;rotatable=0;points=[[0,0.5],[1,0.5]];portConstraint=eastwest;whiteSpace=wrap;html=1;" parent="vAPCmih38q4xz6qMJKvT-254" vertex="1">
                    <mxGeometry y="26" width="255" height="26" as="geometry"/>
                </mxCell>
                <mxCell id="vAPCmih38q4xz6qMJKvT-255" value="+ Begin: DateTime" style="text;strokeColor=none;fillColor=none;align=left;verticalAlign=top;spacingLeft=4;spacingRight=4;overflow=hidden;rotatable=0;points=[[0,0.5],[1,0.5]];portConstraint=eastwest;whiteSpace=wrap;html=1;" parent="vAPCmih38q4xz6qMJKvT-254" vertex="1">
                    <mxGeometry y="52" width="255" height="26" as="geometry"/>
                </mxCell>
                <mxCell id="vAPCmih38q4xz6qMJKvT-256" value="+ End: DateTime" style="text;strokeColor=none;fillColor=none;align=left;verticalAlign=top;spacingLeft=4;spacingRight=4;overflow=hidden;rotatable=0;points=[[0,0.5],[1,0.5]];portConstraint=eastwest;whiteSpace=wrap;html=1;" parent="vAPCmih38q4xz6qMJKvT-254" vertex="1">
                    <mxGeometry y="78" width="255" height="26" as="geometry"/>
                </mxCell>
                <mxCell id="vAPCmih38q4xz6qMJKvT-257" value="+ Description: string" style="text;strokeColor=none;fillColor=none;align=left;verticalAlign=top;spacingLeft=4;spacingRight=4;overflow=hidden;rotatable=0;points=[[0,0.5],[1,0.5]];portConstraint=eastwest;whiteSpace=wrap;html=1;" parent="vAPCmih38q4xz6qMJKvT-254" vertex="1">
                    <mxGeometry y="104" width="255" height="26" as="geometry"/>
                </mxCell>
                <mxCell id="vAPCmih38q4xz6qMJKvT-258" value="+ Name : string" style="text;strokeColor=none;fillColor=none;align=left;verticalAlign=top;spacingLeft=4;spacingRight=4;overflow=hidden;rotatable=0;points=[[0,0.5],[1,0.5]];portConstraint=eastwest;whiteSpace=wrap;html=1;" parent="vAPCmih38q4xz6qMJKvT-254" vertex="1">
                    <mxGeometry y="130" width="255" height="26" as="geometry"/>
                </mxCell>
                <mxCell id="vAPCmih38q4xz6qMJKvT-274" value="+ Organizer: User" style="text;strokeColor=none;fillColor=none;align=left;verticalAlign=top;spacingLeft=4;spacingRight=4;overflow=hidden;rotatable=0;points=[[0,0.5],[1,0.5]];portConstraint=eastwest;whiteSpace=wrap;html=1;" parent="vAPCmih38q4xz6qMJKvT-254" vertex="1">
                    <mxGeometry y="156" width="255" height="26" as="geometry"/>
                </mxCell>
                <mxCell id="vAPCmih38q4xz6qMJKvT-275" value="+ Participatns: ICollection&amp;lt;User&amp;gt;" style="text;strokeColor=none;fillColor=none;align=left;verticalAlign=top;spacingLeft=4;spacingRight=4;overflow=hidden;rotatable=0;points=[[0,0.5],[1,0.5]];portConstraint=eastwest;whiteSpace=wrap;html=1;" parent="vAPCmih38q4xz6qMJKvT-254" vertex="1">
                    <mxGeometry y="182" width="255" height="26" as="geometry"/>
                </mxCell>
                <mxCell id="vAPCmih38q4xz6qMJKvT-259" value="InterestTag" style="swimlane;fontStyle=0;childLayout=stackLayout;horizontal=1;startSize=26;fillColor=none;horizontalStack=0;resizeParent=1;resizeParentMax=0;resizeLast=0;collapsible=1;marginBottom=0;whiteSpace=wrap;html=1;" parent="1" vertex="1">
                    <mxGeometry x="443" y="420" width="255" height="52" as="geometry"/>
                </mxCell>
                <mxCell id="vAPCmih38q4xz6qMJKvT-263" value="+ Name : string" style="text;strokeColor=none;fillColor=none;align=left;verticalAlign=top;spacingLeft=4;spacingRight=4;overflow=hidden;rotatable=0;points=[[0,0.5],[1,0.5]];portConstraint=eastwest;whiteSpace=wrap;html=1;" parent="vAPCmih38q4xz6qMJKvT-259" vertex="1">
                    <mxGeometry y="26" width="255" height="26" as="geometry"/>
                </mxCell>
                <mxCell id="vAPCmih38q4xz6qMJKvT-267" value="" style="endArrow=open;html=1;endSize=12;startArrow=diamondThin;startSize=14;startFill=0;rounded=0;entryX=0.25;entryY=0;entryDx=0;entryDy=0;exitX=1;exitY=0.5;exitDx=0;exitDy=0;" parent="1" source="vAPCmih38q4xz6qMJKvT-265" target="vAPCmih38q4xz6qMJKvT-254" edge="1">
                    <mxGeometry relative="1" as="geometry">
                        <mxPoint x="363" y="500" as="sourcePoint"/>
                        <mxPoint x="463" y="500" as="targetPoint"/>
                        <Array as="points">
                            <mxPoint x="522" y="505"/>
                        </Array>
                    </mxGeometry>
                </mxCell>
                <mxCell id="vAPCmih38q4xz6qMJKvT-268" value="0..N" style="edgeLabel;resizable=0;html=1;align=left;verticalAlign=top;" parent="vAPCmih38q4xz6qMJKvT-267" connectable="0" vertex="1">
                    <mxGeometry x="-1" relative="1" as="geometry">
                        <mxPoint x="30" y="-17" as="offset"/>
                    </mxGeometry>
                </mxCell>
                <mxCell id="vAPCmih38q4xz6qMJKvT-269" value="1" style="edgeLabel;resizable=0;html=1;align=right;verticalAlign=top;" parent="vAPCmih38q4xz6qMJKvT-267" connectable="0" vertex="1">
                    <mxGeometry x="1" relative="1" as="geometry">
                        <mxPoint x="11" y="-35" as="offset"/>
                    </mxGeometry>
                </mxCell>
                <mxCell id="vAPCmih38q4xz6qMJKvT-271" value="" style="endArrow=open;html=1;endSize=12;startArrow=diamondThin;startSize=14;startFill=1;rounded=0;entryX=0.75;entryY=0;entryDx=0;entryDy=0;exitX=1;exitY=0.5;exitDx=0;exitDy=0;" parent="1" source="vAPCmih38q4xz6qMJKvT-184" target="vAPCmih38q4xz6qMJKvT-254" edge="1">
                    <mxGeometry relative="1" as="geometry">
                        <mxPoint x="268" y="475" as="sourcePoint"/>
                        <mxPoint x="517" y="523" as="targetPoint"/>
                        <Array as="points">
                            <mxPoint x="649" y="490"/>
                        </Array>
                    </mxGeometry>
                </mxCell>
                <mxCell id="vAPCmih38q4xz6qMJKvT-272" value="0..N" style="edgeLabel;resizable=0;html=1;align=left;verticalAlign=top;" parent="vAPCmih38q4xz6qMJKvT-271" connectable="0" vertex="1">
                    <mxGeometry x="-1" relative="1" as="geometry">
                        <mxPoint x="30" y="-17" as="offset"/>
                    </mxGeometry>
                </mxCell>
                <mxCell id="vAPCmih38q4xz6qMJKvT-273" value="N" style="edgeLabel;resizable=0;html=1;align=right;verticalAlign=top;" parent="vAPCmih38q4xz6qMJKvT-271" connectable="0" vertex="1">
                    <mxGeometry x="1" relative="1" as="geometry">
                        <mxPoint x="13" y="-35" as="offset"/>
                    </mxGeometry>
                </mxCell>
                <mxCell id="vAPCmih38q4xz6qMJKvT-276" value="" style="endArrow=open;html=1;endSize=12;startArrow=diamondThin;startSize=14;startFill=0;rounded=0;entryX=0;entryY=0.25;entryDx=0;entryDy=0;exitX=1;exitY=0.5;exitDx=0;exitDy=0;" parent="1" source="vAPCmih38q4xz6qMJKvT-236" target="vAPCmih38q4xz6qMJKvT-259" edge="1">
                    <mxGeometry relative="1" as="geometry">
                        <mxPoint x="258" y="450" as="sourcePoint"/>
                        <mxPoint x="507" y="498" as="targetPoint"/>
                        <Array as="points"/>
                    </mxGeometry>
                </mxCell>
                <mxCell id="vAPCmih38q4xz6qMJKvT-277" value="0..N" style="edgeLabel;resizable=0;html=1;align=left;verticalAlign=top;" parent="vAPCmih38q4xz6qMJKvT-276" connectable="0" vertex="1">
                    <mxGeometry x="-1" relative="1" as="geometry">
                        <mxPoint x="30" y="-17" as="offset"/>
                    </mxGeometry>
                </mxCell>
                <mxCell id="vAPCmih38q4xz6qMJKvT-278" value="1" style="edgeLabel;resizable=0;html=1;align=right;verticalAlign=top;" parent="vAPCmih38q4xz6qMJKvT-276" connectable="0" vertex="1">
                    <mxGeometry x="1" relative="1" as="geometry">
                        <mxPoint x="-25" y="-18" as="offset"/>
                    </mxGeometry>
                </mxCell>
                <mxCell id="vAPCmih38q4xz6qMJKvT-282" value="" style="endArrow=open;html=1;endSize=12;startArrow=diamondThin;startSize=14;startFill=0;rounded=0;entryX=1;entryY=0.25;entryDx=0;entryDy=0;exitX=1;exitY=0.5;exitDx=0;exitDy=0;" parent="1" source="vAPCmih38q4xz6qMJKvT-281" target="vAPCmih38q4xz6qMJKvT-259" edge="1">
                    <mxGeometry relative="1" as="geometry">
                        <mxPoint x="618" y="510" as="sourcePoint"/>
                        <mxPoint x="813" y="488" as="targetPoint"/>
                        <Array as="points">
                            <mxPoint x="743" y="570"/>
                            <mxPoint x="743" y="433"/>
                        </Array>
                    </mxGeometry>
                </mxCell>
                <mxCell id="vAPCmih38q4xz6qMJKvT-283" value="0..N" style="edgeLabel;resizable=0;html=1;align=left;verticalAlign=top;" parent="vAPCmih38q4xz6qMJKvT-282" connectable="0" vertex="1">
                    <mxGeometry x="-1" relative="1" as="geometry">
                        <mxPoint x="5" y="-29" as="offset"/>
                    </mxGeometry>
                </mxCell>
                <mxCell id="vAPCmih38q4xz6qMJKvT-284" value="1" style="edgeLabel;resizable=0;html=1;align=right;verticalAlign=top;" parent="vAPCmih38q4xz6qMJKvT-282" connectable="0" vertex="1">
                    <mxGeometry x="1" relative="1" as="geometry">
                        <mxPoint x="30" y="-23" as="offset"/>
                    </mxGeometry>
                </mxCell>
                <mxCell id="vAPCmih38q4xz6qMJKvT-286" value="Review" style="swimlane;fontStyle=0;childLayout=stackLayout;horizontal=1;startSize=26;fillColor=none;horizontalStack=0;resizeParent=1;resizeParentMax=0;resizeLast=0;collapsible=1;marginBottom=0;whiteSpace=wrap;html=1;" parent="1" vertex="1">
                    <mxGeometry x="383" y="750" width="255" height="130" as="geometry"/>
                </mxCell>
                <mxCell id="vAPCmih38q4xz6qMJKvT-287" value="+ Text: string" style="text;strokeColor=none;fillColor=none;align=left;verticalAlign=top;spacingLeft=4;spacingRight=4;overflow=hidden;rotatable=0;points=[[0,0.5],[1,0.5]];portConstraint=eastwest;whiteSpace=wrap;html=1;" parent="vAPCmih38q4xz6qMJKvT-286" vertex="1">
                    <mxGeometry y="26" width="255" height="26" as="geometry"/>
                </mxCell>
                <mxCell id="vAPCmih38q4xz6qMJKvT-288" value="+ Score: short" style="text;strokeColor=none;fillColor=none;align=left;verticalAlign=top;spacingLeft=4;spacingRight=4;overflow=hidden;rotatable=0;points=[[0,0.5],[1,0.5]];portConstraint=eastwest;whiteSpace=wrap;html=1;" parent="vAPCmih38q4xz6qMJKvT-286" vertex="1">
                    <mxGeometry y="52" width="255" height="26" as="geometry"/>
                </mxCell>
                <mxCell id="vAPCmih38q4xz6qMJKvT-289" value="+ Reviewer: User" style="text;strokeColor=none;fillColor=none;align=left;verticalAlign=top;spacingLeft=4;spacingRight=4;overflow=hidden;rotatable=0;points=[[0,0.5],[1,0.5]];portConstraint=eastwest;whiteSpace=wrap;html=1;" parent="vAPCmih38q4xz6qMJKvT-286" vertex="1">
                    <mxGeometry y="78" width="255" height="26" as="geometry"/>
                </mxCell>
                <mxCell id="vAPCmih38q4xz6qMJKvT-290" value="+ Reviewed: Location" style="text;strokeColor=none;fillColor=none;align=left;verticalAlign=top;spacingLeft=4;spacingRight=4;overflow=hidden;rotatable=0;points=[[0,0.5],[1,0.5]];portConstraint=eastwest;whiteSpace=wrap;html=1;" parent="vAPCmih38q4xz6qMJKvT-286" vertex="1">
                    <mxGeometry y="104" width="255" height="26" as="geometry"/>
                </mxCell>
                <mxCell id="vAPCmih38q4xz6qMJKvT-292" value="" style="endArrow=open;html=1;endSize=12;startArrow=diamondThin;startSize=14;startFill=0;rounded=0;entryX=1;entryY=0.5;entryDx=0;entryDy=0;exitX=0.25;exitY=0;exitDx=0;exitDy=0;" parent="1" source="vAPCmih38q4xz6qMJKvT-286" target="vAPCmih38q4xz6qMJKvT-285" edge="1">
                    <mxGeometry relative="1" as="geometry">
                        <mxPoint x="532" y="555" as="sourcePoint"/>
                        <mxPoint x="258" y="532" as="targetPoint"/>
                        <Array as="points">
                            <mxPoint x="448" y="710"/>
                            <mxPoint x="313" y="533"/>
                        </Array>
                    </mxGeometry>
                </mxCell>
                <mxCell id="vAPCmih38q4xz6qMJKvT-293" value="0..N" style="edgeLabel;resizable=0;html=1;align=left;verticalAlign=top;" parent="vAPCmih38q4xz6qMJKvT-292" connectable="0" vertex="1">
                    <mxGeometry x="-1" relative="1" as="geometry">
                        <mxPoint x="-29" y="-40" as="offset"/>
                    </mxGeometry>
                </mxCell>
                <mxCell id="vAPCmih38q4xz6qMJKvT-294" value="1" style="edgeLabel;resizable=0;html=1;align=right;verticalAlign=top;" parent="vAPCmih38q4xz6qMJKvT-292" connectable="0" vertex="1">
                    <mxGeometry x="1" relative="1" as="geometry">
                        <mxPoint x="29" y="-28" as="offset"/>
                    </mxGeometry>
                </mxCell>
                <mxCell id="vAPCmih38q4xz6qMJKvT-301" value="1" style="endArrow=open;html=1;endSize=12;startArrow=diamondThin;startSize=14;startFill=1;align=left;verticalAlign=bottom;rounded=0;entryX=0;entryY=0.5;entryDx=0;entryDy=0;exitX=1;exitY=0.25;exitDx=0;exitDy=0;" parent="1" source="vAPCmih38q4xz6qMJKvT-239" target="vAPCmih38q4xz6qMJKvT-290" edge="1">
                    <mxGeometry x="-1" y="3" relative="1" as="geometry">
                        <mxPoint x="223" y="750" as="sourcePoint"/>
                        <mxPoint x="383" y="750" as="targetPoint"/>
                        <Array as="points">
                            <mxPoint x="263" y="815"/>
                            <mxPoint x="353" y="867"/>
                        </Array>
                    </mxGeometry>
                </mxCell>
            </root>
        </mxGraphModel>
    </diagram>
</mxfile>